<svg width="92" height="92" viewBox="0 0 92 92" fill="none" xmlns="http://www.w3.org/2000/svg">
<path fill-rule="evenodd" clip-rule="evenodd" d="M0 0H92V92H0V0ZM38.3439 46.1179C38.3439 41.8801 41.7774 38.4438 46.014 38.4438C50.2505 38.4438 53.6859 41.8801 53.6859 46.1179C53.6859 50.3557 50.2505 53.792 46.014 53.792C41.7774 53.792 38.3439 50.3557 38.3439 46.1179ZM34.1967 46.1179C34.1967 52.6465 39.4873 57.9386 46.014 57.9386C52.5407 57.9386 57.8313 52.6465 57.8313 46.1179C57.8313 39.5893 52.5407 34.2972 46.014 34.2972C39.4873 34.2972 34.1967 39.5893 34.1967 46.1179ZM55.5375 33.8285C55.5372 34.3748 55.699 34.909 56.0023 35.3634C56.3055 35.8178 56.7367 36.172 57.2412 36.3813C57.7458 36.5906 58.301 36.6455 58.8368 36.5392C59.3726 36.4328 59.8647 36.1699 60.2511 35.7837C60.6375 35.3975 60.9007 34.9054 61.0075 34.3696C61.1143 33.8338 61.0598 33.2783 60.851 32.7734C60.6421 32.2686 60.2884 31.837 59.8343 31.5333C59.3803 31.2296 58.8464 31.0673 58.3002 31.0671H58.2991C57.567 31.0674 56.8649 31.3584 56.3471 31.8762C56.2824 31.9409 56.2212 32.0085 56.1637 32.0787C55.761 32.57 55.538 33.1876 55.5375 33.8285ZM36.7164 64.856C34.4726 64.7538 33.2531 64.3799 32.4426 64.0641C31.3682 63.6456 30.6015 63.1473 29.7955 62.3421C28.9895 61.537 28.4905 60.7709 28.0741 59.6961C27.7581 58.8857 27.3844 57.6655 27.2824 55.4211C27.1708 52.9945 27.1485 52.2656 27.1485 46.1181C27.1485 39.9705 27.1727 39.2436 27.2824 36.815C27.3846 34.5706 27.7611 33.3528 28.0741 32.54C28.4924 31.4653 28.9906 30.6984 29.7955 29.8921C30.6004 29.0859 31.3663 28.5868 32.4426 28.1702C33.2527 27.8542 34.4726 27.4803 36.7164 27.3783C39.1422 27.2667 39.8709 27.2444 46.014 27.2444C52.157 27.2444 52.8864 27.2686 55.3143 27.3783C55.4545 27.3847 55.5908 27.3922 55.7231 27.4006C57.7087 27.5273 58.8264 27.8767 59.5881 28.1702C60.6625 28.5868 61.4292 29.087 62.2352 29.8921C63.0412 30.6973 63.5383 31.4653 63.9566 32.54C64.2726 33.3504 64.6463 34.5706 64.7483 36.815C64.8599 39.2436 64.8822 39.9705 64.8822 46.1181C64.8822 52.2656 64.8599 52.9925 64.7483 55.4211C64.6461 57.6655 64.2705 58.8854 63.9566 59.6961C63.9305 59.7632 63.904 59.8292 63.8772 59.8941C63.4749 60.8669 62.9898 61.588 62.2352 62.3421C61.4303 63.1466 60.6625 63.6456 59.5881 64.0641C58.778 64.3801 57.5581 64.7539 55.3143 64.856C52.8885 64.9676 52.1598 64.9899 46.014 64.9899C39.8682 64.9899 39.1415 64.9676 36.7164 64.856ZM36.5258 23.2368C34.0759 23.3484 32.4018 23.737 30.9398 24.3061C29.4256 24.8938 28.1439 25.6822 26.863 26.9614C25.5821 28.2406 24.796 29.5247 24.2085 31.0393C23.6396 32.5027 23.2511 34.1763 23.1395 36.627C23.0261 39.0815 23.0002 39.8663 23.0002 46.1179C23.0002 52.3695 23.0261 53.1542 23.1395 55.6087C23.2511 58.0596 23.6396 59.7331 24.2085 61.1964C24.796 62.7101 25.5823 63.9957 26.863 65.2744C28.1437 66.553 29.4256 67.3403 30.9398 67.9297C32.4045 68.4987 34.0759 68.8873 36.5258 68.9989C38.981 69.1105 39.7642 69.1383 46.014 69.1383C52.2638 69.1383 53.0483 69.1124 55.5021 68.9989C57.9522 68.8873 59.6253 68.4987 61.0882 67.9297C62.6014 67.3403 63.8841 66.5536 65.165 65.2744C66.4458 63.9952 67.2303 62.7101 67.8195 61.1964C68.3884 59.7331 68.7787 58.0594 68.8884 55.6087C69 53.1524 69.0259 52.3695 69.0259 46.1179C69.0259 39.8663 69 39.0815 68.8884 36.627C68.7768 34.1762 68.3884 32.5017 67.8195 31.0393C67.2303 29.5257 66.4438 28.2426 65.165 26.9614C63.8861 25.6801 62.6014 24.8938 61.09 24.3061C59.6253 23.737 57.9521 23.3466 55.5039 23.2368C53.0501 23.1252 52.2656 23.0974 46.0158 23.0974C39.766 23.0974 38.981 23.1234 36.5258 23.2368Z" fill="url(#paint0_linear_1181_41)"/>
<defs>
<linearGradient id="paint0_linear_1181_41" x1="90.2318" y1="92" x2="-1.76824" y2="-2.47638e-06" gradientUnits="userSpaceOnUse">
<stop stop-color="#FBE18A"/>
<stop offset="0.21" stop-color="#FCBB45"/>
<stop offset="0.38" stop-color="#F75274"/>
<stop offset="0.52" stop-color="#D53692"/>
<stop offset="0.74" stop-color="#8F39CE"/>
<stop offset="1" stop-color="#5B4FE9"/>
</linearGradient>
</defs>
</svg>
